<?xml version="1.0" encoding="utf-8"?>
<!-- Svg Vector Icons : http://www.onlinewebfonts.com/icon -->
<!DOCTYPE svg PUBLIC "-//W3C//DTD SVG 1.1//EN" "http://www.w3.org/Graphics/SVG/1.1/DTD/svg11.dtd">
<svg version="1.1" xmlns="http://www.w3.org/2000/svg" xmlns:xlink="http://www.w3.org/1999/xlink" x="0px" y="0px" viewBox="0 0 1000 1000" enable-background="new 0 0 1000 1000" xml:space="preserve">
<metadata> Svg Vector Icons : http://www.onlinewebfonts.com/icon </metadata>
<g><g><g><path d="M869.5,462.6c-34.5-8.9-76.6-3.1-112-2.5c-42.9,0.7-86.5,3.1-128.6,12c0,0,0-0.1,0-0.1c-0.4-0.5-0.8-0.9-1.2-1.4c-4.4-60.9-5.3-121.9-5.6-182.8c0.1-0.4,0.1-0.8,0-1.3c-0.3-87.5,0.9-175-4.1-262.4c-0.1-1.2-0.7-1.8-1.2-2.6c-0.8-3.7-3.6-6.8-8.6-6.6c-80.8,2.8-161.5-2.8-242.2-1c-2.8-5.6-12.5-4.7-13.1,1.5c-3.9,2.6-3.6,8.5,0.9,10.6c12.8,109.2-3.6,219.9-1.8,329.2c-0.9,0.5-1.3,1.9-0.2,2.7c0.1,0.1,0.2,0.1,0.3,0.2c0.8,41.1,4.2,82.1,12.8,122.6c-0.5-0.1-0.8-0.6-1.4-0.6c-0.8-0.1-1.7-0.2-2.6-0.3c0,0,0,0-0.1-0.1c-0.2-0.2-0.3,0.1-0.6,0c-72.6-6.9-160.6-37.3-231.8-14.2c-3.2,1-4.2,4.8-1.9,7.3c0.3,0.3,0.6,0.7,1,1.1c0.6,0.6,1.4,0.9,2.2,1c-0.9,1.2-1.3,2.7-0.3,4.5c100.7,178.6,233.5,355,370.3,508c4.4,4.9,10.2,2.7,13-1.6c108-71.9,162.8-188.5,233.3-293.4c43.9-65.4,99-140.3,128.2-213.5c0.8-2,0.3-3.6-0.7-5.1C875.9,469.9,874.6,463.9,869.5,462.6z M383.6,182.4c0.3-13.2,0.3-26.4,0-39.5c58.5,78.2,150.1,129.6,219.4,198c0.4,14.1,0.5,28.1,1.2,42.2C543.1,306.8,456.6,247.2,383.6,182.4z M604.7,393.8c0.2,3.8,0.5,7.6,0.8,11.4C547,332,453.5,282.3,383.3,223.3c-0.4-0.4-0.9-0.4-1.4-0.4c0.6-11.4,1.3-22.9,1.6-34.3C455.7,258.2,530.1,327,604.7,393.8z M521.6,257.7C473,220.6,421,185.2,383.5,136.2c-0.1-0.1-0.2-0.1-0.2-0.1c-0.3-9.1-0.7-18.2-1.4-27.2c63,76.4,140.6,141,220.5,199.2c0.1,6.6,0.1,13.1,0.2,19.7C582.1,299.6,548.2,278,521.6,257.7z M602.2,277.1c0,6.7,0,13.4,0.1,20.1c-78-60.1-154-121.7-220.9-194.2c-0.9-10.9-2.2-21.8-3.7-32.7C439.8,150.1,524.5,212.6,602.2,277.1z M377.2,66.7c-1.5-10.3-3.7-20.6-6-30.8c47.9,44.4,99.9,83.8,146.7,129.4c21.5,21,44.9,41,68,60.2c5.5,4.6,10.1,12.2,16.3,16.4c0,7.7-0.2,15.3-0.2,23C531.4,194.6,442.2,144.1,377.2,66.7z M381.7,227.9c72.9,66.1,154.5,119.9,224.6,189.2c0.7,10.1,1.2,20.3,2.1,30.4c-66.5-76.1-154.5-130.8-227.5-200.7C381.2,240.4,381.4,234.2,381.7,227.9z M605.5,33.3c-0.2,9.1-0.3,18.2-0.5,27.4c-13.6-11.2-30.5-19.4-46.8-26.9C574,33.8,589.7,33.7,605.5,33.3z M544.5,33.6c0.1,0,0.1,0.1,0.1,0.2c21,11,40.1,24,60.2,36.3c-0.1,5.1-0.2,10.2-0.3,15.4c-5.4-2.3-11.8-6.8-14.4-8.3c-10.3-5.9-20.2-12.5-30.1-19c-12-8-23.8-16.4-35.6-24.7C531.2,33.5,537.9,33.5,544.5,33.6z M472.2,32c0.1,0.2-0.1,0.4,0.1,0.5c24.4,12.4,46.6,28.7,68.6,44.8c18.8,13.7,37.6,31.8,59.2,40.8c2.6,1.1,4.9-3,2.7-4.7C565.6,83.2,521.7,52.5,478,32.2c11.9,0.4,23.8,0.6,35.7,0.9c19.6,13.8,38.7,28.1,58.5,41.6c5.9,4,20.8,16.8,32.4,19c-0.3,20.7-0.8,41.4-1,62.2c-43.9-49.8-107.9-94.5-165.6-125.3C449.3,31.1,460.7,31.6,472.2,32z M436,30.5c-0.7,0.4-1.1,1.3-0.2,1.8c63.4,35.9,111.6,87,166.5,133.7c0.3,0.2,0.6,0.1,0.9,0.3c-0.1,10.6-0.4,21.2-0.5,31.8c-11.6-4.9-27.3-21-33.9-26.2c-21.8-17.2-43.2-35.1-64.4-53.1c-33.9-28.7-68.1-57.5-100-88.4c-1.1-1.1-2.8,0.6-1.7,1.7c37.5,37.8,77.9,73,118,108.1c19.3,17,38.8,33.9,59.3,49.5c5.7,4.4,14.3,12.8,22.7,15.5c-0.1,8.4-0.2,16.8-0.3,25.2c-6.6-10.1-23-20.7-29.8-26.5c-21.3-18.1-42.4-36.8-62.6-56.1c-43.8-42-94.5-76-139.6-116.5c-0.3-1.2-0.4-2.5-0.7-3.7C391.8,28.5,413.9,29.5,436,30.5z M511.1,973.8C374.4,820,253.2,644.4,137.2,474.7c-0.6-0.9-1.5-1.3-2.4-1.6c2-0.8,4-1.7,6-2.5c0.3-0.1,0.3-0.4,0.4-0.7c2.6,5.8,7.4,7.5,14.3,5.3c69.1,86,123.4,182.8,194,267.5c59.7,71.7,139.5,126,182.9,210.7c0.1,0.2,0.3,0.2,0.4,0.3C525.6,960.5,518.6,967.4,511.1,973.8z M537.4,949.4c-29.6-70.2-93.5-122.5-145.9-175.5c-88.8-89.8-150.5-202-230.1-299.6c9.1,0.1,18.2,0.4,27.3,1.2c1.3,0.1,2.5,0.3,3.8,0.4c95.2,169.5,244.1,301.7,367.6,450C552.7,933.9,545.3,941.9,537.4,949.4z M564.4,921.5C448.7,767,301.7,640.3,197.8,476.6c9.4,0.9,18.8,2.2,28.1,3.6c38.4,78.4,101.1,140.4,161.8,202.1c68.4,69.5,133.6,142.5,194.7,218.6C576.5,907.8,570.6,914.8,564.4,921.5z M587.3,895.3C476.6,755.1,317.4,637.2,231.3,481c8.4,1.3,16.8,2.8,25.2,4.3c103,141.1,234.5,257.9,343.8,393.9C595.9,884.6,591.7,890.1,587.3,895.3z M604.8,873.5C499.1,737.5,371,621.2,263.7,486.5c7.2,1.3,14.4,2.6,21.6,3.9c-0.6,0.6-0.8,1.6,0.1,2.4c121.3,105.3,194.1,278,335.7,358.4C615.7,858.7,610.5,866.3,604.8,873.5z M625.1,845.9C491.1,748.4,417.6,594.3,289,491.1c13.2,2.3,26.4,4.3,39.7,5.2c105,108.6,200.2,227,308.4,332.5C633,834.5,629.2,840.3,625.1,845.9z M641.5,822.5C539.5,714,442.9,599.3,335,496.6c9.5,0.4,19,0.4,28.5-0.7c2.5-0.3,4.1-1.4,5.3-2.8c49.5,56,96.2,114.5,145.2,170.9c41.4,47.6,88,102.4,145.2,132.4C653.3,805.1,647.5,813.9,641.5,822.5z M663.9,789.2c-114.8-83.7-192.3-201.8-293.3-299.8c0.2-1.1,0.2-2.2-0.1-3.3c3.2,0.1,6.5-1.7,6.1-5.4c-1-9.1-1.8-18.3-2.4-27.5c90.6,112.9,195.6,216,301,314.9c0.6,0.6,1.2,0.6,1.9,0.7C672.6,775.5,668.4,782.4,663.9,789.2z M680.2,763.7c-0.1-0.2-0.1-0.4-0.2-0.5C578.8,656,471.1,556.2,373.8,445.3c-0.6-12.5-0.8-25.1-0.9-37.8c100.5,117,224.9,210.4,324.7,328.3C691.9,745.2,686.1,754.5,680.2,763.7z M702.1,729c-95-123.2-224.8-213.7-329.1-328.6c0-8.6,0.2-17.2,0.5-25.9c72.8,57.7,132.4,128.8,199.6,192.9c36.8,35.1,78.5,64.5,115.6,99.3c5.9,5.6,11.3,12,16.9,17.9c4.8,5.1,9.6,10.3,14.3,15.4C713.9,709.8,708.1,719.4,702.1,729z M726.3,689.7C696.2,637.9,621,597,579.9,560.6C509.3,497.9,450.7,424,373.7,369.2c0.5-13.4,1.2-26.8,1.9-40.3c92,138.2,233.8,238.8,366.2,335.7C736.6,673,731.5,681.4,726.3,689.7z M755.9,641.9c-3.1,5.2-6.4,10.4-9.6,15.5c-130.5-101.5-273.4-198.3-370-335c-0.1-0.1-0.2-0.1-0.3-0.2c0.5-7.7,1-15.4,1.5-23c72,73.2,148.7,141.5,225.3,209.8c46.1,41.2,96.6,105.9,153.6,131.4c0.1,0.1,0.2,0,0.3,0C756.4,640.9,756.1,641.4,755.9,641.9z M759.7,635.2c-0.1-0.1-0.1-0.2-0.2-0.2c-60.8-44-114.5-101.9-171-151.3c-70.4-61.6-139.7-124.4-209.6-186.6c-0.5-0.4-0.9-0.2-1.3,0c1-14.7,1.9-29.5,2.9-44.2c69.2,76,158.7,130.4,228.8,205.9c0.4,4.8,0.7,9.7,1.2,14.5c0.2,2.5,1.4,4.3,2.9,5.7c-0.9,4,1,8.7,5.8,8.2c4.4-0.5,8.8-0.9,13.3-1.4c46.4,39.2,92.5,84.1,145.3,114C771.3,613.1,765.3,625.3,759.7,635.2z M780.2,594.7c-29.8-20.5-58.4-42.2-86.3-65.2c-18-14.9-36.3-31.2-56.3-44.2c10.9-1.1,21.9-1.6,32.8-2.4c33.7,38.3,73.7,70.9,115.4,100.1C784,586.9,782.1,590.9,780.2,594.7z M788.6,577.4c-39.5-30.1-79-59.6-114.2-94.9c12.1-0.8,24.2-1.5,36.3-2c25.3,28.8,58.2,51.1,91,71C797.2,560.2,792.8,568.9,788.6,577.4z M805,545.4c-30.1-21.4-62.5-38.5-88.6-65.2c9.9-0.4,19.8-0.7,29.7-0.9c11.7,12.2,23.4,24.1,36.3,35c8.4,7.1,18.2,15.2,28.8,20C809.2,538,807,541.6,805,545.4z M815.5,526.8c-10.9-6.7-22-12.7-32.3-20.8c-10.6-8.4-20.6-17.6-30.4-26.9c1.5,0,3.1-0.1,4.6-0.1c9.4-0.2,19.3,0.2,29.3,0.7c11.8,11.5,24.8,22.6,38.6,31.6C822,516.2,818.7,521.4,815.5,526.8z M830.6,503.8c-10.9-8.1-22.2-15.7-33.2-23.6c18.3,0.9,36.9,1.6,54.4-0.4C844.5,486.1,837.4,494.4,830.6,503.8z"/></g></g><g></g><g></g><g></g><g></g><g></g><g></g><g></g><g></g><g></g><g></g><g></g><g></g><g></g><g></g><g></g></g>
</svg>