<?xml version="1.0" ?><svg id="Layer_1" style="enable-background:new 0 0 96 96;" version="1.1" viewBox="0 0 96 96" xml:space="preserve" xmlns="http://www.w3.org/2000/svg" xmlns:xlink="http://www.w3.org/1999/xlink"><style type="text/css">
	.st0{fill-rule:evenodd;clip-rule:evenodd;fill:#D2AB67;}
	.st1{fill-rule:evenodd;clip-rule:evenodd;fill:#8E5745;}
	.st2{fill-rule:evenodd;clip-rule:evenodd;fill:#58595B;}
</style><g id="XMLID_2_"><polygon class="st0" id="XMLID_6_" points="14.4,96 82.4,96 82.4,34 48.5,6 14.4,34  "/><path class="st1" d="M48.4,9.7L7.2,50.2c-1.6,1.5-4.1,1.5-5.7,0c-1.5-1.6-1.5-4.1,0-5.7l44-43.3   C45.6,1.1,45.7,1,45.8,1C46.5,0.4,47.4,0,48.4,0s1.8,0.3,2.6,0.9C51,1,51.1,1.1,51.2,1.2l44,43.3c1.6,1.5,1.6,4.1,0,5.7   c-1.5,1.6-4.1,1.6-5.7,0L48.4,9.7z" id="XMLID_5_"/><path class="st2" d="M48.4,76c9.9,0,18-8.1,18-18c0-9.9-8.1-18-18-18c-9.9,0-18,8.1-18,18C30.4,67.9,38.4,76,48.4,76   z" id="XMLID_4_"/><path class="st2" d="M67.4,84h-38c-1.1,0-2,0.9-2,2v0c0,1.1,0.9,2,2,2h38c1.1,0,2-0.9,2-2v0   C69.4,84.9,68.5,84,67.4,84z" id="XMLID_3_"/></g></svg>